<svg xmlns="http://www.w3.org/2000/svg" width="512" height="512" viewBox="0 0 512 512" role="img" aria-label="Propósito em Ação">
  <rect width="512" height="512" rx="96" fill="#123f2b"/>
  <path d="M92 315c48 58 109 91 178 91 57 0 104-22 148-64" fill="none" stroke="#f8e7bd" stroke-width="28" stroke-linecap="round"/>
  <circle cx="256" cy="229" r="132" fill="#f7f8f5"/>
  <path d="M256 102c47 64 73 113 73 160 0 49-32 86-73 86s-73-37-73-86c0-47 26-96 73-160Z" fill="#17633f"/>
  <path d="M256 151v144" stroke="#f7f8f5" stroke-width="22" stroke-linecap="round"/>
  <path d="M256 295l54-54" stroke="#f8e7bd" stroke-width="22" stroke-linecap="round"/>
  <circle cx="256" cy="295" r="18" fill="#256f8f"/>
  <path d="M380 326l40 8-11-37" fill="none" stroke="#f8e7bd" stroke-width="22" stroke-linecap="round" stroke-linejoin="round"/>
</svg>
